<svg width="46" height="46" viewBox="0 0 46 46" fill="none" xmlns="http://www.w3.org/2000/svg">
<path d="M12.3085 5.75C8.67537 5.75 5.75 8.67537 5.75 12.3085V35.1099C5.75 38.743 8.67537 41.6684 12.3085 41.6684H24.6666V27.6265H20.9536V22.571H24.6666V18.2518C24.6666 14.8585 26.8605 11.7428 31.9143 11.7428C33.9605 11.7428 35.4736 11.9392 35.4736 11.9392L35.3546 16.6602C35.3546 16.6602 33.8114 16.6456 32.1275 16.6456C30.3051 16.6456 30.0128 17.4853 30.0128 18.8793V22.5711H35.4994L35.2603 27.6266H30.0128V41.6684H35.1099C38.743 41.6684 41.6683 38.743 41.6683 35.1099V12.3085C41.6683 8.6754 38.743 5.75004 35.1099 5.75004H12.3084L12.3085 5.75Z" fill="white"/>
</svg>
