<svg width="64" height="70" viewBox="0 0 64 70" fill="none" xmlns="http://www.w3.org/2000/svg">
<g filter="url(#filter0_d)">
<path d="M30.8403 14.1472C31.1684 12.9741 32.8316 12.9741 33.1597 14.1472L33.997 17.1417C36.1815 24.954 41.9671 31.2524 49.5663 34.0909C50.4074 34.4051 50.4074 35.5949 49.5663 35.9091C41.9671 38.7476 36.1815 45.046 33.997 52.8583L33.1597 55.8528C32.8316 57.0259 31.1684 57.0259 30.8403 55.8528L30.003 52.8583C27.8185 45.046 22.0329 38.7476 14.4337 35.9091C13.5926 35.5949 13.5926 34.4051 14.4337 34.0909C22.0329 31.2524 27.8185 24.954 30.003 17.1417L30.8403 14.1472Z" fill="#FFC829"/>
</g>
<defs>
<filter id="filter0_d" x="0.802734" y="0.267353" width="62.3943" height="69.4653" filterUnits="userSpaceOnUse" color-interpolation-filters="sRGB">
<feFlood flood-opacity="0" result="BackgroundImageFix"/>
<feColorMatrix in="SourceAlpha" type="matrix" values="0 0 0 0 0 0 0 0 0 0 0 0 0 0 0 0 0 0 127 0"/>
<feOffset/>
<feGaussianBlur stdDeviation="6.5"/>
<feColorMatrix type="matrix" values="0 0 0 0 1 0 0 0 0 0.784314 0 0 0 0 0.160784 0 0 0 0.38 0"/>
<feBlend mode="normal" in2="BackgroundImageFix" result="effect1_dropShadow"/>
<feBlend mode="normal" in="SourceGraphic" in2="effect1_dropShadow" result="shape"/>
</filter>
</defs>
</svg>
