<svg width="46" height="46" viewBox="0 0 46 46" fill="none" xmlns="http://www.w3.org/2000/svg">
<path d="M23.0009 17.0122C19.7037 17.0122 17.0129 19.703 17.0129 23.0003C17.0129 26.2976 19.7037 28.9884 23.0009 28.9884C26.2982 28.9884 28.989 26.2976 28.989 23.0003C28.989 19.703 26.2982 17.0122 23.0009 17.0122ZM40.9607 23.0003C40.9607 20.5206 40.9832 18.0634 40.8439 15.5882C40.7047 12.7132 40.0488 10.1616 37.9465 8.05929C35.8396 5.95246 33.2925 5.30109 30.4175 5.16183C27.9379 5.02258 25.4806 5.04504 23.0054 5.04504C20.5257 5.04504 18.0685 5.02258 15.5933 5.16183C12.7183 5.30109 10.1668 5.95695 8.06442 8.05929C5.95759 10.1661 5.30622 12.7132 5.16696 15.5882C5.0277 18.0679 5.05016 20.5251 5.05016 23.0003C5.05016 25.4755 5.0277 27.9372 5.16696 30.4124C5.30622 33.2874 5.96208 35.839 8.06442 37.9413C10.1713 40.0482 12.7183 40.6995 15.5933 40.8388C18.073 40.978 20.5302 40.9556 23.0054 40.9556C25.4851 40.9556 27.9424 40.978 30.4175 40.8388C33.2925 40.6995 35.8441 40.0437 37.9465 37.9413C40.0533 35.8345 40.7047 33.2874 40.8439 30.4124C40.9877 27.9372 40.9607 25.48 40.9607 23.0003ZM23.0009 32.2138C17.9023 32.2138 13.7875 28.0989 13.7875 23.0003C13.7875 17.9017 17.9023 13.7868 23.0009 13.7868C28.0996 13.7868 32.2144 17.9017 32.2144 23.0003C32.2144 28.0989 28.0996 32.2138 23.0009 32.2138ZM32.5918 15.5612C31.4013 15.5612 30.44 14.5999 30.44 13.4095C30.44 12.2191 31.4013 11.2577 32.5918 11.2577C33.7822 11.2577 34.7435 12.2191 34.7435 13.4095C34.7439 13.6922 34.6885 13.9721 34.5805 14.2334C34.4724 14.4946 34.314 14.7319 34.1141 14.9318C33.9142 15.1317 33.6769 15.2902 33.4156 15.3982C33.1544 15.5062 32.8744 15.5616 32.5918 15.5612Z" fill="white"/>
</svg>
