<svg width="312" height="63" viewBox="0 0 312 63" fill="none" xmlns="http://www.w3.org/2000/svg">
<g filter="black">
<path d="M16.8068 56.072C15.4148 56.648 14.1188 56.672 12.9188 56.144C11.7188 55.616 10.9988 54.728 10.7588 53.48C9.79875 49.112 9.00675 44.888 8.38275 40.808L6.07875 25.328C5.02275 18.464 4.27875 13.688 3.84675 11C3.70275 9.704 4.03875 8.432 4.85475 7.184C5.71875 5.888 6.84675 5.024 8.23875 4.592C9.63075 4.112 10.9028 4.16 12.0548 4.736C13.2068 5.312 13.9028 6.248 14.1428 7.544L16.4468 22.736C17.3108 29.216 18.0308 34.208 18.6068 37.712C25.9988 24.752 32.0948 14.576 36.8948 7.184C37.6628 5.936 38.7428 5.048 40.1348 4.52C41.5748 3.992 42.8708 4.016 44.0228 4.592C45.1748 5.12 45.8708 6.032 46.1108 7.328C46.3508 8.624 46.0628 9.92 45.2468 11.216C41.9828 16.112 39.0548 20.768 36.4628 25.184L27.8228 40.304C24.6068 46.016 22.1588 50.24 20.4788 52.976C19.8068 54.176 18.8708 55.064 17.6708 55.64C17.3828 55.832 17.0948 55.976 16.8068 56.072ZM45.2636 56.216C43.8716 56.216 42.7676 55.76 41.9516 54.848C41.1356 53.888 40.8476 52.712 41.0876 51.32C41.3756 50.072 42.0236 48.968 43.0316 48.008C44.0396 47 45.1436 46.4 46.3436 46.208C48.1676 37.856 50.3996 27.272 53.0396 14.456C51.9356 14.216 51.0956 13.64 50.5196 12.728C49.9436 11.816 49.7996 10.736 50.0876 9.488C50.3756 8.096 51.1196 6.92 52.3196 5.96C53.5196 5 54.8156 4.52 56.2076 4.52L64.3436 4.592C65.7356 4.592 66.7916 5.096 67.5116 6.104C68.2796 7.112 68.5196 8.312 68.2316 9.704C67.9916 10.904 67.3676 11.96 66.3596 12.872C65.3996 13.784 64.2956 14.36 63.0476 14.6C60.5036 27.224 58.3196 37.688 56.4956 45.992C57.6476 46.184 58.5116 46.736 59.0876 47.648C59.7116 48.56 59.9276 49.616 59.7356 50.816C59.4476 52.208 58.7276 53.408 57.5756 54.416C56.4236 55.424 55.1516 55.952 53.7596 56L45.2636 56.216ZM89.745 56.072C86.577 56.072 83.673 55.616 81.033 54.704C78.393 53.744 76.161 52.352 74.337 50.528C72.609 48.8 71.265 46.688 70.305 44.192C69.393 41.648 68.937 38.816 68.937 35.696C68.937 30.08 70.425 24.896 73.401 20.144C76.377 15.392 80.289 11.624 85.137 8.84C89.985 6.008 95.097 4.592 100.473 4.592C102.825 4.592 105.081 5.024 107.241 5.888C109.401 6.704 111.177 7.856 112.569 9.344C114.009 11.024 115.257 12.8 116.313 14.672C116.745 15.44 116.961 16.184 116.961 16.904C116.961 18.632 116.337 20.048 115.089 21.152C113.841 22.256 112.329 22.808 110.553 22.808C109.161 22.808 108.057 22.232 107.241 21.08C107.049 20.792 106.833 20.504 106.593 20.216C106.401 19.88 106.209 19.544 106.017 19.208C105.729 18.68 105.393 18.128 105.009 17.552C104.289 16.544 103.329 15.776 102.129 15.248C100.977 14.72 99.705 14.456 98.313 14.456C95.001 14.456 91.857 15.392 88.881 17.264C85.905 19.088 83.505 21.536 81.681 24.608C79.905 27.632 79.017 30.848 79.017 34.256C79.017 38.336 80.073 41.384 82.185 43.4C84.345 45.416 87.369 46.424 91.257 46.424C93.321 46.424 95.121 46.136 96.657 45.56C98.193 44.984 99.393 44.192 100.257 43.184C101.025 42.368 101.553 41.6 101.841 40.88L103.209 38C103.833 36.896 104.601 36.08 105.513 35.552C106.425 35.024 107.409 34.76 108.465 34.76C109.665 34.76 110.673 35.12 111.489 35.84C112.353 36.512 112.785 37.424 112.785 38.576C112.785 39.536 112.281 41 111.273 42.968C109.065 47.288 106.041 50.552 102.201 52.76C98.361 54.968 94.209 56.072 89.745 56.072ZM137.584 51.032C137.248 52.424 136.48 53.6 135.28 54.56C134.128 55.52 132.856 56 131.464 56C130.072 55.952 128.992 55.448 128.224 54.488C127.456 53.48 127.24 52.28 127.576 50.888C127.912 49.4 129.328 42.608 131.824 30.512C133.072 24.32 134.296 18.92 135.496 14.312C131.656 14.36 128.416 14.384 125.776 14.384C124.384 14.384 123.28 13.928 122.464 13.016C121.696 12.104 121.432 10.952 121.672 9.56C121.96 8.168 122.68 7.016 123.832 6.104C125.032 5.144 126.328 4.664 127.72 4.664C130.792 4.664 135.88 4.64 142.984 4.592C150.088 4.544 155.176 4.52 158.248 4.52C159.64 4.52 160.72 4.976 161.488 5.888C162.304 6.752 162.568 7.88 162.28 9.272C162.04 10.616 161.32 11.792 160.12 12.8C158.968 13.76 157.72 14.24 156.376 14.24C153.352 14.24 149.752 14.264 145.576 14.312C144.424 18.728 143.2 24.104 141.904 30.44C139.408 42.68 137.968 49.544 137.584 51.032ZM181.271 55.928C176.951 55.928 173.063 55.064 169.607 53.336C166.199 51.56 163.511 49.064 161.543 45.848C159.575 42.584 158.591 38.84 158.591 34.616C158.591 29.096 159.935 23.984 162.623 19.28C165.359 14.528 169.031 10.76 173.639 7.976C178.295 5.192 183.335 3.8 188.759 3.8C190.007 3.8 190.919 3.848 191.495 3.944C192.071 4.04 192.959 4.28 194.159 4.664L195.959 5.24C196.871 5.528 197.807 5.84 198.767 6.176C199.727 6.512 200.543 6.896 201.215 7.328C203.951 9.2 206.087 11.744 207.623 14.96C209.159 18.128 209.927 21.704 209.927 25.688C209.927 30.872 208.607 35.792 205.967 40.448C203.375 45.104 199.871 48.848 195.455 51.68C191.087 54.512 186.359 55.928 181.271 55.928ZM182.927 46.208C186.143 46.208 189.023 45.344 191.567 43.616C194.159 41.84 196.175 39.536 197.615 36.704C199.103 33.824 199.847 30.8 199.847 27.632C199.847 25.376 199.319 23.024 198.263 20.576C197.255 18.128 195.983 16.4 194.447 15.392C193.871 15.008 192.815 14.648 191.279 14.312C190.943 14.216 190.583 14.12 190.199 14.024C189.815 13.88 189.407 13.76 188.975 13.664C187.727 13.568 186.671 13.52 185.807 13.52C182.783 13.52 179.951 14.432 177.311 16.256C174.671 18.032 172.583 20.408 171.047 23.384C169.511 26.36 168.743 29.504 168.743 32.816C168.743 37.184 169.967 40.52 172.415 42.824C174.911 45.08 178.415 46.208 182.927 46.208ZM244.094 52.184C243.998 48.152 243.854 44.96 243.662 42.608L243.59 41.024C243.446 38.816 242.75 37.136 241.502 35.984C240.254 34.784 238.478 34.184 236.174 34.184C235.694 34.184 234.734 34.232 233.294 34.328C231.566 34.424 230.102 34.472 228.902 34.472H226.742L223.286 51.032C222.95 52.616 222.206 53.84 221.054 54.704C219.95 55.568 218.726 56 217.382 56C215.894 56 214.742 55.544 213.926 54.632C213.158 53.72 212.918 52.52 213.206 51.032L217.67 29.432L221.774 10.136C222.11 8.744 222.854 7.592 224.006 6.68C225.158 5.72 226.454 5.192 227.894 5.096L230.414 4.88C234.158 4.592 236.702 4.448 238.046 4.448C253.454 4.448 261.158 8.504 261.158 16.616C261.158 19.736 260.078 22.52 257.918 24.968C255.758 27.416 252.854 29.192 249.206 30.296C251.126 31.784 252.47 34.064 253.238 37.136C254.054 40.16 254.438 44.36 254.39 49.736C254.438 51.56 253.814 53.048 252.518 54.2C251.222 55.352 249.758 55.928 248.126 55.928C247.022 55.928 246.086 55.616 245.318 54.992C244.55 54.368 244.142 53.432 244.094 52.184ZM228.974 25.256C231.47 24.968 233.774 24.824 235.886 24.824H240.278C241.814 24.824 243.398 24.56 245.03 24.032C246.71 23.504 248.078 22.808 249.134 21.944C250.238 21.032 250.79 20.096 250.79 19.136C250.79 17.36 249.878 16.088 248.054 15.32C246.23 14.552 243.134 14.168 238.766 14.168C235.406 14.168 232.79 14.24 230.918 14.384C230.246 17.552 229.526 21.176 228.758 25.256H228.974ZM277.384 56.072C275.896 56.072 274.768 55.64 274 54.776C273.232 53.864 272.992 52.688 273.28 51.248L273.712 49.16C274.384 45.368 275.008 42.32 275.584 40.016L276.52 36.128L272.128 24.608C269.536 17.792 267.856 13.256 267.088 11C266.752 9.752 266.824 8.624 267.304 7.616C267.784 6.608 268.528 5.816 269.536 5.24C270.544 4.616 271.576 4.304 272.632 4.304C273.4 4.304 274.144 4.592 274.864 5.168C275.584 5.744 276.088 6.464 276.376 7.328L276.88 8.84C277.552 10.76 278.44 13.28 279.544 16.4C280.696 19.52 281.896 22.688 283.144 25.904L288.472 19.136L299.2 6.752C300.592 5.168 302.104 4.376 303.736 4.376C304.936 4.376 305.944 4.76 306.76 5.528C307.624 6.296 308.056 7.256 308.056 8.408C308.056 9.656 307.552 10.88 306.544 12.08C306.16 12.608 305.344 13.568 304.096 14.96C302.896 16.304 301.312 18.128 299.344 20.432L295.528 24.752C291.736 29.072 288.736 32.648 286.528 35.48C285.376 41.144 284.896 43.568 285.088 42.752L283.36 50.96C283.072 52.592 282.352 53.864 281.2 54.776C280.048 55.64 278.776 56.072 277.384 56.072Z" fill="url(#paint0_linear)"/>
</g>
<defs>
<filter id="filter0_d" x="0.814453" y="0.800049" width="310.242" height="61.7229" filterUnits="userSpaceOnUse" color-interpolation-filters="sRGB">
<feFlood flood-opacity="0" result="BackgroundImageFix"/>
<feColorMatrix in="SourceAlpha" type="matrix" values="0 0 0 0 0 0 0 0 0 0 0 0 0 0 0 0 0 0 127 0"/>
<feOffset dy="3"/>
<feColorMatrix type="matrix" values="0 0 0 0 0 0 0 0 0 0 0 0 0 0 0 0 0 0 1 0"/>
<feBlend mode="normal" in2="BackgroundImageFix" result="effect1_dropShadow"/>
<feBlend mode="normal" in="SourceGraphic" in2="effect1_dropShadow" result="shape"/>
</filter>
<linearGradient id="paint0_linear" x1="102" y1="107" x2="102" y2="-32" gradientUnits="userSpaceOnUse">
<stop offset="0.354574" stop-color="#FABB09"/>
<stop offset="1" stop-color="#FFDC30"/>
</linearGradient>
</defs>
</svg>
