<svg width="46" height="46" viewBox="0 0 46 46" fill="none" xmlns="http://www.w3.org/2000/svg">
<path d="M29.2219 5.75H18.1964C8.13513 5.75 5.75 8.13513 5.75 18.1964V29.2219C5.75 39.2832 8.13513 41.6683 18.1964 41.6683H29.2219C39.2832 41.6683 41.6683 39.2832 41.6683 29.2219V18.1964C41.6683 8.13513 39.2596 5.75 29.2219 5.75ZM34.7464 31.3724H32.139C31.1513 31.3724 30.8471 30.589 29.0704 28.7886C27.5271 27.2925 26.8435 27.0938 26.463 27.0938C25.9254 27.0938 25.7727 27.2453 25.7727 27.9828V30.3387C25.7727 30.9706 25.5741 31.35 23.9017 31.35C21.136 31.35 18.0674 29.6776 15.9157 26.5618C12.6708 21.9958 11.783 18.5758 11.783 17.8687C11.783 17.4882 11.9345 17.1324 12.6652 17.1324H15.2782C15.9393 17.1324 16.1907 17.4366 16.4477 18.1437C17.7396 21.8735 19.8913 25.1408 20.7791 25.1408C21.1069 25.1408 21.2584 24.9893 21.2584 24.1531V20.301C21.1585 18.5242 20.2235 18.3715 20.2235 17.7407C20.2235 17.4366 20.4749 17.1324 20.8779 17.1324H24.987C25.5426 17.1324 25.7469 17.4366 25.7469 18.0909V23.2877C25.7469 23.8489 25.9983 24.0476 26.1499 24.0476C26.4776 24.0476 26.7582 23.8489 27.3654 23.2406C29.2421 21.136 30.5868 17.8911 30.5868 17.8911C30.7618 17.5106 31.066 17.1548 31.7271 17.1548H34.3401C35.1235 17.1548 35.2986 17.5578 35.1235 18.119C34.7958 19.6387 31.598 24.152 31.598 24.152C31.3231 24.6077 31.2175 24.8063 31.598 25.3148C31.8786 25.6953 32.7912 26.4843 33.3984 27.1915C34.5152 28.4598 35.3738 29.5238 35.6028 30.2601C35.8598 30.9908 35.4805 31.3713 34.743 31.3713L34.7464 31.3724Z" fill="white"/>
</svg>
