<svg width="46" height="46" viewBox="0 0 46 46" fill="none" xmlns="http://www.w3.org/2000/svg">
<path d="M43.2026 12.4572C42.9626 11.5296 42.492 10.6836 41.8379 10.004C41.1837 9.32444 40.3691 8.83504 39.4754 8.58479C36.1858 7.66675 22.9993 7.66675 22.9993 7.66675C22.9993 7.66675 9.81285 7.66675 6.52329 8.57991C5.62923 8.82934 4.81415 9.31848 4.15991 9.99819C3.50568 10.6779 3.03531 11.5243 2.79606 12.4523C1.91602 15.8706 1.91602 23.0001 1.91602 23.0001C1.91602 23.0001 1.91602 30.1296 2.79606 33.543C3.28078 35.4279 4.71144 36.9124 6.52329 37.4154C9.81285 38.3334 22.9993 38.3334 22.9993 38.3334C22.9993 38.3334 36.1858 38.3334 39.4754 37.4154C41.292 36.9124 42.7179 35.4279 43.2026 33.543C44.0827 30.1296 44.0827 23.0001 44.0827 23.0001C44.0827 23.0001 44.0827 15.8706 43.2026 12.4572ZM18.8109 29.5436V16.4566L29.7291 22.9512L18.8109 29.5436Z" fill="white"/>
</svg>
